<svg width="300" height="301" viewBox="0 0 300 301" fill="none" xmlns="http://www.w3.org/2000/svg">
<rect x="75" y="75" width="150" height="150" fill="#A68DF2"/>
<path d="M149.989 149.996L224.994 149.996L300 225.001L224.994 225.001L224.994 300.007L149.989 225.001L149.989 149.996Z" fill="white"/>
<path d="M-2.62288e-05 300.006L-1.31144e-05 225.001L75.0056 149.995L75.0056 225.001L149.99 225.001L75.0056 300.006L-2.62288e-05 300.006Z" fill="white"/>
<path d="M149.99 149.99L74.9846 149.99L0.000257291 74.9846L74.9847 74.9846L74.9847 0.000244177L149.99 74.9846L149.99 149.99Z" fill="white"/>
<path d="M300 0V75.0056L224.995 149.99V75.0056L149.989 75.0056L224.995 0L300 0Z" fill="white"/>
</svg>
