<svg width="135" height="36" viewBox="0 0 135 36" fill="none" xmlns="http://www.w3.org/2000/svg">
<path d="M31.8257 36H23.8687L15.9116 28.043H23.8687V20.0859L31.8257 28.043V36Z" fill="white"/>
<path d="M0 36V28.043L7.95704 20.0859V28.043H15.9118L7.95704 36H0Z" fill="white"/>
<path d="M0 4.17407H7.95704L15.9118 12.1311H7.95704V20.0859L0 12.1311V4.17407Z" fill="white"/>
<path d="M31.8257 4.17407V12.1311L23.8687 20.0859V12.1311H15.9116L23.8687 4.17407H31.8257Z" fill="white"/>
<path d="M15.9116 24.0644C18.1089 24.0644 19.8901 22.2832 19.8901 20.0859C19.8901 17.8886 18.1089 16.1074 15.9116 16.1074C13.7144 16.1074 11.9331 17.8886 11.9331 20.0859C11.9331 22.2832 13.7144 24.0644 15.9116 24.0644Z" fill="white"/>
<path d="M69.7747 8.30098C66.6683 8.30098 64.0631 9.76651 62.429 12.4301H62.3638C61.0399 9.89014 58.237 8.25827 55.1755 8.25827C52.4602 8.25827 50.0754 9.63839 48.7604 11.9603V9.11017H44.8179V31.1449H48.8886V18.0203C48.8886 14.3564 51.0554 11.9895 54.409 11.9895C57.7627 11.9895 59.6755 14.3564 59.6755 18.0203V31.1449H63.7462V18.0203C63.7462 14.4688 66.0524 11.9895 69.3521 11.9895C72.427 11.9895 74.659 14.525 74.659 18.0203V31.1449H78.7297V18.063C78.7297 12.3155 75.0479 8.30098 69.7769 8.30098H69.7747Z" fill="white"/>
<path d="M92.5962 8.30093C87.0015 8.30093 83.3871 11.3309 83.3871 16.0197V16.2894H87.505L87.5005 16.0175C87.4848 14.9633 87.8129 14.0866 88.4805 13.4101C89.3661 12.5087 90.7755 12.0345 92.5534 12.0345C95.8531 12.0345 97.9053 13.7585 97.9053 16.5345V17.1481L92.1826 17.8426C85.9181 18.5507 82.3262 21.3177 82.3262 25.4311C82.3262 29.259 85.5315 31.8304 90.299 31.8304C93.6616 31.8304 96.287 30.5245 97.9053 28.0497V31.1493H101.976V16.6154C101.976 11.5647 98.2942 8.30093 92.5984 8.30093H92.5962ZM97.9031 20.7063V22.3202C97.9031 25.8716 94.9855 28.3509 90.8069 28.3509C88.0422 28.3509 86.3924 27.2248 86.3924 25.3411C86.3924 23.244 88.4715 21.8279 92.2455 21.3514L97.9031 20.704V20.7063Z" fill="white"/>
<path d="M107.44 9.11012H107.173V9.37761V30.8751V31.1448H107.44H110.974H111.244V30.8751V9.37761V9.11012H110.974H107.44Z" fill="white"/>
<path d="M109.229 0C107.593 0 106.406 1.15085 106.406 2.73776C106.406 4.32468 107.593 5.56094 109.229 5.56094C110.866 5.56094 112.01 4.4011 112.01 2.73776C112.01 1.07443 110.866 0 109.229 0V0Z" fill="white"/>
<path d="M125.485 8.30093C119.89 8.30093 116.276 11.3309 116.276 16.0197V16.2894H120.394L120.389 16.0175C120.374 14.9633 120.702 14.0866 121.369 13.4101C122.255 12.5087 123.664 12.0345 125.442 12.0345C128.742 12.0345 130.792 13.7585 130.792 16.5345V17.1481L125.069 17.8426C118.805 18.5529 115.213 21.3177 115.213 25.4311C115.213 29.259 118.418 31.8304 123.188 31.8304C126.551 31.8304 129.176 30.5245 130.794 28.0497V31.1493H134.865V16.6154C134.865 11.5647 131.183 8.30093 125.485 8.30093ZM130.792 20.7063V22.3202C130.792 25.8716 127.874 28.3509 123.696 28.3509C120.931 28.3509 119.281 27.2248 119.281 25.3411C119.281 23.244 121.36 21.8279 125.132 21.3514L130.79 20.704L130.792 20.7063Z" fill="white"/>
</svg>
