<svg width="96" height="59" viewBox="0 0 96 59" fill="none" xmlns="http://www.w3.org/2000/svg">
<path d="M4.72903 10.3C6.80503 10.3 8.01703 9.304 8.01703 7.72C8.01703 5.8 6.27703 5.464 4.74103 5.212C3.49303 5.02 2.36503 4.816 2.36503 3.7C2.36503 2.788 3.10903 2.2 4.47703 2.2C5.92903 2.2 6.76903 2.908 6.76903 4.108H7.82503C7.81303 2.32 6.55303 1.24 4.47703 1.24C2.43703 1.24 1.27303 2.236 1.27303 3.76C1.27303 5.596 2.95303 5.992 4.47703 6.232C5.74903 6.436 6.92503 6.628 6.92503 7.792C6.92503 8.74 6.12103 9.34 4.74103 9.34C3.15703 9.34 2.23303 8.56 2.22103 7.252H1.14103C1.14103 9.136 2.50903 10.3 4.72903 10.3ZM13.6993 10.3C15.5953 10.3 17.2753 9.064 17.6953 7.372L16.6513 7.168C16.3033 8.416 15.0673 9.34 13.6993 9.34C11.7913 9.34 10.4113 7.84 10.4113 5.764C10.4113 3.7 11.7793 2.2 13.6993 2.2C15.0913 2.2 16.3273 3.148 16.6393 4.456L17.7073 4.312C17.2873 2.536 15.6073 1.24 13.6993 1.24C11.1553 1.24 9.31931 3.136 9.31931 5.764C9.30731 8.392 11.1553 10.3 13.6993 10.3ZM20.5601 10V6.688H22.1201L25.0481 10H26.4281L23.3561 6.628H23.5001C25.0721 6.556 26.2001 5.548 26.2001 4.108C26.2001 2.548 24.9881 1.54 23.1521 1.54H19.4681V10H20.5601ZM20.5601 2.5H23.1521C24.3641 2.5 25.1081 3.124 25.1081 4.108C25.1081 5.104 24.3641 5.728 23.1521 5.728H20.5601V2.5ZM32.0199 10.3C34.6959 10.3 36.5919 8.428 36.5919 5.764C36.5919 3.124 34.6959 1.24 32.0199 1.24C29.3439 1.24 27.4479 3.124 27.4479 5.764C27.4479 8.428 29.3439 10.3 32.0199 10.3ZM32.0199 9.34C29.9919 9.34 28.5399 7.84 28.5399 5.764C28.5399 3.688 29.9919 2.2 32.0199 2.2C34.0479 2.2 35.4879 3.688 35.4879 5.764C35.4879 7.84 34.0479 9.34 32.0199 9.34ZM43.699 10V9.04H39.439V1.54H38.347V10H43.699ZM50.5662 10V9.04H46.3062V1.54H45.2142V10H50.5662ZM57.7934 10C60.7214 10 62.6654 8.32 62.6654 5.764C62.6654 3.208 60.7214 1.54 57.7934 1.54H55.0814V10H57.7934ZM56.1734 2.5H57.7934C60.0494 2.5 61.5854 3.748 61.5854 5.764C61.5854 7.792 60.0614 9.04 57.7934 9.04H56.1734V2.5ZM68.477 10.3C71.153 10.3 73.049 8.428 73.049 5.764C73.049 3.124 71.153 1.24 68.477 1.24C65.801 1.24 63.905 3.124 63.905 5.764C63.905 8.428 65.801 10.3 68.477 10.3ZM68.477 9.34C66.449 9.34 64.997 7.84 64.997 5.764C64.997 3.688 66.449 2.2 68.477 2.2C70.505 2.2 71.945 3.688 71.945 5.764C71.945 7.84 70.505 9.34 68.477 9.34ZM78.1457 10L79.9097 2.86H80.0177L81.7817 10H83.4617L85.9097 1.54H84.8657L82.7057 9.076H82.5857L80.6777 1.54H79.2617L77.3417 9.076H77.2217L75.0617 1.54H74.0057L76.4657 10H78.1457ZM88.7164 10V2.98H88.8364L92.8444 10H94.4044V1.54H93.3124V8.56H93.2044L89.1964 1.54H87.6244V10H88.7164Z" fill="white"/>
<path d="M48.3135 25L53.9703 30.6568L53.9703 41.9706L48.3135 36.3137L42.6566 41.9706L42.6566 30.6568L48.3135 25Z" fill="white"/>
<path d="M48.3135 58.9411L42.6566 53.2843L42.6566 41.9705L48.3135 47.6274L53.9703 41.9705L53.9703 53.2843L48.3135 58.9411Z" fill="white"/>
</svg>
