<svg width="100" height="101" viewBox="0 0 100 101" fill="none" xmlns="http://www.w3.org/2000/svg">
<path d="M49.9963 49.9987L74.9982 49.9987L100 75.0006L74.9982 75.0006L74.9981 100.002L49.9963 75.0006L49.9963 49.9987Z" fill="#A68DF2"/>
<path d="M49.9966 49.9987L49.9966 75.0006L24.9947 100.002L24.9947 75.0006L-5.32388e-05 75.0006L24.9947 49.9987L49.9966 49.9987Z" fill="#A68DF2"/>
<path d="M49.9966 49.9966L24.9947 49.9966L-4.88673e-05 24.9947L24.9947 24.9947L24.9947 -6.08682e-05L49.9966 24.9947L49.9966 49.9966Z" fill="#A68DF2"/>
<path d="M49.9963 49.9975L49.9963 24.9957L74.9982 0.000915694L74.9982 24.9957L100 24.9957L74.9981 49.9975L49.9963 49.9975Z" fill="#A68DF2"/>
<rect x="25" y="24.9992" width="50" height="50" fill="white"/>
<rect x="35" y="35.0005" width="30" height="30" rx="15" fill="#A68DF2"/>
</svg>
