<svg width="100" height="100" viewBox="0 0 100 100" fill="none" xmlns="http://www.w3.org/2000/svg">
<path d="M99.9999 100H74.998L49.9961 74.9985H74.998V49.9966L99.9999 74.9985V100Z" fill="white"/>
<path d="M0 100V74.9985L25.0019 49.9966V74.9985H49.9967L25.0019 100H0Z" fill="white"/>
<path d="M0 0H25.0019L49.9967 25.0019H25.0019V49.9967L0 25.0019V0Z" fill="white"/>
<path d="M99.9999 0V25.0019L74.998 49.9967V25.0019H49.9961L74.998 0H99.9999Z" fill="white"/>
<path d="M49.997 62.498C56.9011 62.498 62.498 56.9011 62.498 49.997C62.498 43.093 56.9011 37.4961 49.997 37.4961C43.093 37.4961 37.4961 43.093 37.4961 49.997C37.4961 56.9011 43.093 62.498 49.997 62.498Z" fill="white"/>
</svg>
