<svg width="98" height="70" viewBox="0 0 98 70" fill="none" xmlns="http://www.w3.org/2000/svg">
<path d="M22.2801 56.2139C22.0798 56.2139 21.9175 56.3761 21.9175 56.5728V64.0439C21.9175 65.1378 21.5929 66.0246 20.9817 66.6044C20.4223 67.1324 19.6487 67.3912 18.7475 67.336C16.9276 67.2669 15.8399 66.0384 15.8399 64.0439V56.5728C15.8399 56.3761 15.6776 56.2139 15.4773 56.2139H13.4468C13.2465 56.2139 13.0842 56.3761 13.0842 56.5728V64.0439C13.0842 67.5396 15.2977 69.8551 18.7164 69.9413C18.8062 69.9413 18.8925 69.9448 18.9788 69.9448C20.5777 69.9448 22.0004 69.4203 23.0053 68.4506C24.093 67.405 24.6663 65.8797 24.6663 64.0439V56.5728C24.6663 56.3761 24.504 56.2139 24.3071 56.2139H22.2766H22.2801ZM2.91796 64.0439H6.4126C7.31389 64.0439 8.74007 64.489 8.74007 65.6727C8.74007 66.984 6.9444 67.084 6.39534 67.084H2.91796V64.0439V64.0439ZM2.91796 58.7641H6.39534C7.68338 58.7641 8.35676 59.5095 8.35676 60.248C8.35676 61.0727 7.7041 61.4937 6.4126 61.4937H2.91796V58.7641V58.7641ZM0.528341 56.1967C0.328055 56.1967 0.165754 56.3589 0.165754 56.5556V69.3443C0.165754 69.5445 0.328055 69.7067 0.528341 69.7067H6.39534C9.69315 69.7067 11.5095 68.2815 11.5095 65.6899C11.5095 64.8134 11.0399 63.4331 9.8002 62.7153C10.6393 62.139 11.109 61.2591 11.109 60.21C11.109 57.6978 9.34783 56.1967 6.39534 56.1967H0.528341V56.1967ZM39.4253 56.1967C39.225 56.1967 39.0661 56.3589 39.0661 56.5556V69.3443C39.0661 69.5445 39.2284 69.7067 39.4253 69.7067H41.4523C41.6526 69.7067 41.8149 69.5445 41.8149 69.3443V56.5556C41.8149 56.3554 41.6526 56.1967 41.4523 56.1967H39.4253ZM53.5005 56.1967C53.3002 56.1967 53.1414 56.3589 53.1414 56.5556V64.6202L46.525 56.3278C46.456 56.2416 46.3524 56.1932 46.2453 56.1932H44.6741C44.4738 56.1932 44.3115 56.3554 44.3115 56.5521V69.3409C44.3115 69.541 44.4738 69.7032 44.6741 69.7032H46.7392C46.9394 69.7032 47.1017 69.541 47.1017 69.3409V61.3419L53.7146 69.5686C53.7837 69.6549 53.8873 69.7032 53.9978 69.7032H55.5517C55.752 69.7032 55.9143 69.541 55.9143 69.3409V56.5521C55.9143 56.352 55.752 56.1932 55.5517 56.1932H53.504L53.5005 56.1967ZM58.7632 56.1967C58.5629 56.1967 58.4006 56.3589 58.4006 56.5556V69.3443C58.4006 69.5445 58.5629 69.7067 58.7632 69.7067H68.2146C68.4115 69.7067 68.5738 69.5445 68.5738 69.3443V67.336C68.5738 67.1393 68.4115 66.9736 68.2146 66.9736H61.1701V64.2647H67.8659C68.0662 64.2647 68.225 64.1025 68.225 63.9058V62.0044C68.225 61.8043 68.0627 61.6421 67.8659 61.6421H61.1701V58.9125H68.1594C68.3597 58.9125 68.5185 58.7503 68.5185 58.5536V56.5625C68.5185 56.3623 68.3562 56.2036 68.1594 56.2036H58.7632V56.1967ZM27.4979 57.3251C26.8211 58.0049 26.4826 58.8573 26.4895 59.8615C26.4895 63.2295 29.9151 63.6988 31.7591 63.9472C33.8345 64.2233 34.7185 64.7409 34.7185 65.6899C34.7185 67.3222 32.5188 67.4498 31.842 67.4498C30.8924 67.4498 29.1554 67.2014 28.1678 65.5243C28.116 65.438 28.0331 65.3793 27.9364 65.3552C27.8398 65.331 27.7362 65.3517 27.6567 65.4069L26.1201 66.4318C25.9647 66.5388 25.9163 66.739 26.0026 66.9046C27.1491 69.0131 28.9966 70 31.8213 70C34.646 70 37.4638 68.8681 37.488 65.6899C37.488 62.5462 34.7323 61.7422 32.0388 61.3695C30.3122 61.1245 29.2418 60.7932 29.2418 59.8994C29.2418 58.74 30.6438 58.3259 31.8386 58.3259C33.0817 58.3431 34.1833 58.8297 34.7082 59.5958C34.8187 59.7579 35.0431 59.7994 35.2054 59.6889L36.7594 58.6468C36.9217 58.5364 36.97 58.319 36.8664 58.1533C35.8823 56.5901 34.2247 55.8275 31.7902 55.8275C30.0084 55.8275 28.4441 56.3727 27.5013 57.3251M70.9841 57.3251C70.3073 58.0049 69.9689 58.8573 69.9758 59.8615C69.9758 63.2295 73.4014 63.6988 75.2454 63.9472C77.3207 64.2233 78.2048 64.7409 78.2048 65.6899C78.2048 67.3222 76.0051 67.4498 75.3317 67.4498C74.3821 67.4498 72.6417 67.2014 71.654 65.5243C71.6057 65.438 71.5228 65.3793 71.4227 65.3552C71.326 65.331 71.2258 65.3517 71.1395 65.4069L69.6063 66.4318C69.4509 66.5388 69.3991 66.739 69.4889 66.9046C70.6353 69.0131 72.4863 70 75.311 70C78.1357 70 80.9535 68.8681 80.9742 65.6899C80.9742 62.5462 78.222 61.7422 75.5251 61.3695C73.7985 61.1245 72.728 60.7932 72.728 59.8994C72.728 58.74 74.13 58.3259 75.3248 58.3259C76.5679 58.3431 77.6695 58.8297 78.1944 59.5958C78.3049 59.7579 78.5294 59.7994 78.6917 59.6889L80.2456 58.6468C80.4079 58.5364 80.4528 58.319 80.3527 58.1533C79.3685 56.5901 77.7075 55.8275 75.273 55.8275C73.4911 55.8275 71.9303 56.3727 70.9841 57.3251M83.0462 57.3251C82.3693 58.0049 82.0309 58.8573 82.0378 59.8615C82.0378 63.2295 85.4634 63.6988 87.3074 63.9472C89.3793 64.2233 90.2668 64.7409 90.2668 65.6899C90.2668 67.3222 88.0671 67.4498 87.3937 67.4498C86.4441 67.4498 84.7037 67.2014 83.7161 65.5243C83.6677 65.438 83.5849 65.3793 83.4847 65.3552C83.388 65.331 83.2879 65.3517 83.205 65.4069L81.6683 66.4318C81.5129 66.5388 81.4646 66.739 81.5509 66.9046C82.6974 69.0131 84.5483 70 87.373 70C90.1978 70 93.0156 68.8681 93.0363 65.6899C93.0363 62.5462 90.2841 61.7422 87.5871 61.3695C85.8605 61.1245 84.79 60.7932 84.79 59.8994C84.79 58.74 86.192 58.3259 87.3868 58.3259C88.63 58.3431 89.7316 58.8297 90.2565 59.5958C90.3704 59.7579 90.5914 59.7994 90.7537 59.6889L92.3111 58.6468C92.4734 58.5364 92.5183 58.319 92.4182 58.1533C91.434 56.5901 89.773 55.8275 87.3385 55.8275C85.5566 55.8275 83.9923 56.3727 83.0496 57.3251M95.3603 50.8341H95.7505C95.9024 50.8341 95.975 50.9376 95.975 51.0446C95.975 51.1033 95.9543 51.155 95.9163 51.193C95.8748 51.2379 95.8161 51.262 95.7436 51.262H95.3603V50.8341V50.8341ZM95.0944 50.5339C95.0668 50.5339 95.0495 50.5546 95.0495 50.5788V52.0315C95.0495 52.0592 95.0702 52.0799 95.0944 52.0799H95.312C95.3396 52.0799 95.3603 52.0592 95.3603 52.0315V51.5553H95.5778L96.0095 52.0626C96.0095 52.0626 96.0302 52.0799 96.044 52.0799H96.2857C96.3134 52.0799 96.3306 52.0592 96.3306 52.0315V51.9867C96.3306 51.9867 96.3272 51.966 96.3203 51.9556L95.9404 51.5174C96.2029 51.4415 96.3065 51.2102 96.2927 51.0067C96.2754 50.7789 96.0993 50.5339 95.7471 50.5339H95.0909H95.0944ZM94.5246 51.3207C94.5315 50.6443 94.9666 50.1888 95.6158 50.1888C96.265 50.1888 96.707 50.6443 96.707 51.3207C96.707 51.997 96.2685 52.4525 95.6158 52.4525C94.9632 52.4525 94.5281 51.997 94.5246 51.3207ZM94.1862 51.3207C94.1862 52.173 94.7767 52.7666 95.6158 52.7666C96.455 52.7666 97.0455 52.173 97.0455 51.3207C97.0455 50.4683 96.4584 49.8748 95.6158 49.8748C94.7733 49.8748 94.1862 50.4683 94.1862 51.3207ZM77.3829 0C77.2759 0 77.1757 0.0241558 77.0721 0.0310574V0H61.6777V0.0138033C61.6397 0.0138033 61.6017 0 61.5638 0H54.4778C52.3368 0 50.5929 1.74267 50.5929 3.88218V49.8748H42.5435V22.1992C42.5435 20.0562 40.8031 18.317 38.6586 18.317H31.5727C29.4317 18.317 27.6878 20.0562 27.6878 22.1992V46.8691H19.6384V36.8479C19.6384 34.7084 17.8945 32.9657 15.7535 32.9657H8.671C6.53001 32.9657 4.78614 34.7084 4.78614 36.8479V46.9243L0.725173 50.0956C0.296976 50.3441 0 50.7927 0 51.3207C0 52.1178 0.64575 52.7666 1.44689 52.7666H91.6999C92.4976 52.7666 93.1468 52.1178 93.1468 51.3207C93.1468 50.8238 92.8774 50.4062 92.4941 50.1439L88.3537 46.9105V36.8479C88.3537 34.7084 86.6099 32.9657 84.4689 32.9657H77.3829C75.2419 32.9657 73.498 34.7084 73.498 36.8479V46.8691H65.4452V3.88218C65.4452 3.5371 65.383 3.21272 65.3036 2.89179H73.6431C73.5602 3.20927 73.5015 3.5371 73.5015 3.88218V15.6426C73.5015 17.7856 75.2454 19.5282 77.3864 19.5282H84.4723C86.6133 19.5282 88.3572 17.7856 88.3572 15.6426V3.88218C88.3572 1.74267 86.6133 0 84.4723 0H77.3864H77.3829Z" fill="white"/>
</svg>
